<svg xmlns="http://www.w3.org/2000/svg" viewBox="0 0 1920 1080" preserveAspectRatio="xMidYMid slice">
  <defs>
    <linearGradient id="sky" x1="0" y1="0" x2="0" y2="1">
      <stop offset="0" stop-color="#07182f"/>
      <stop offset="0.52" stop-color="#0d3158"/>
      <stop offset="1" stop-color="#07111f"/>
    </linearGradient>
    <linearGradient id="water" x1="0" y1="0" x2="0" y2="1">
      <stop offset="0" stop-color="#123d65"/>
      <stop offset="1" stop-color="#050c18"/>
    </linearGradient>
    <radialGradient id="glow" cx="50%" cy="42%" r="58%">
      <stop offset="0" stop-color="#6caeff" stop-opacity=".26"/>
      <stop offset="1" stop-color="#6caeff" stop-opacity="0"/>
    </radialGradient>
    <linearGradient id="mountain" x1="0" y1="0" x2="0" y2="1">
      <stop offset="0" stop-color="#173d62"/>
      <stop offset="1" stop-color="#071323"/>
    </linearGradient>
    <filter id="blur"><feGaussianBlur stdDeviation="24"/></filter>
  </defs>

  <rect width="1920" height="1080" fill="url(#sky)"/>
  <rect width="1920" height="1080" fill="url(#glow)"/>

  <g opacity=".16" fill="none" stroke="#9acbff" stroke-width="2">
    <circle cx="960" cy="420" r="310"/>
    <circle cx="960" cy="420" r="470"/>
  </g>

  <g opacity=".22" filter="url(#blur)">
    <ellipse cx="390" cy="430" rx="340" ry="95" fill="#6baeff"/>
    <ellipse cx="1510" cy="520" rx="430" ry="120" fill="#4b8ed5"/>
  </g>

  <path d="M0 650 L190 500 L330 590 L505 430 L720 635 L900 510 L1080 650 L1260 470 L1430 590 L1600 445 L1810 600 L1920 520 V1080 H0Z" fill="url(#mountain)"/>
  <path d="M0 730 L250 610 L430 700 L650 565 L850 720 L1040 610 L1240 720 L1450 575 L1640 690 L1810 590 L1920 670 V1080 H0Z" fill="#050d19" opacity=".78"/>

  <rect y="735" width="1920" height="345" fill="url(#water)"/>
  <g opacity=".12" stroke="#8bc2ff" stroke-width="2">
    <path d="M220 820 H1700"/><path d="M330 860 H1590"/><path d="M450 905 H1470"/><path d="M560 950 H1360"/>
  </g>

  <g text-anchor="middle" font-family="Inter, Noto Sans, sans-serif">
    <text x="960" y="548" font-size="74" font-weight="600" letter-spacing="5" fill="#d9ebff" opacity=".46">ShellSky</text>
    <text x="960" y="592" font-size="18" letter-spacing="6" fill="#b9d8f7" opacity=".34">FLY HIGH · WORK SMART</text>
  </g>

  <rect width="1920" height="1080" fill="#020712" opacity=".16"/>
</svg>
